<svg width="17" height="16" viewBox="0 0 17 16" fill="none" xmlns="http://www.w3.org/2000/svg">
    <path d="M6.74468 12.7199L2.06134 6.69328H4.61868L6.74468 12.7199ZM10.736 6.69328L8.49601 13.9906L5.91334 6.69261L10.736 6.69328ZM14.9227 6.69328L10.1167 12.8746L12.0227 6.69261L14.9227 6.69328ZM15.1667 5.47061H12.0307L11.0773 2.00928H12.8453C12.8808 2.01656 12.9144 2.03117 12.9439 2.05218C12.9734 2.07319 12.9982 2.10013 13.0167 2.13128L15.1667 5.47061ZM10.7687 5.47061H5.92201L7.14401 2.01728H9.80734L10.7687 5.47061ZM5.84068 2.02594L4.62734 5.47061H1.83334L3.91868 2.21328L3.98334 2.13994C4.01297 2.10566 4.04926 2.07776 4.09001 2.05794C4.12733 2.04963 4.16602 2.04963 4.20334 2.05794L5.84068 2.02594Z" fill="#065774"/>
</svg>
