<svg width="24" height="24" viewBox="0 0 24 24" fill="none" xmlns="http://www.w3.org/2000/svg">
<g clip-path="url(#clip0_15_1194)">
<path fill-rule="evenodd" clip-rule="evenodd" d="M12 5C11.7551 4.99997 11.5187 4.91004 11.3356 4.74728C11.1526 4.58452 11.0357 4.36025 11.007 4.117L11 4V3C11.0003 2.74512 11.0979 2.49997 11.2728 2.31463C11.4478 2.1293 11.687 2.01777 11.9414 2.00283C12.1958 1.98789 12.4464 2.07067 12.6418 2.23426C12.8373 2.39785 12.9629 2.6299 12.993 2.883L13 3V4C13 4.26522 12.8946 4.51957 12.7071 4.70711C12.5196 4.89464 12.2652 5 12 5ZM16.95 7.05C16.7625 6.86247 16.6572 6.60816 16.6572 6.343C16.6572 6.07784 16.7625 5.82353 16.95 5.636L17.657 4.929C17.7492 4.83349 17.8596 4.75731 17.9816 4.7049C18.1036 4.65249 18.2348 4.6249 18.3676 4.62375C18.5004 4.62259 18.6321 4.6479 18.755 4.69818C18.8779 4.74846 18.9895 4.82271 19.0834 4.9166C19.1773 5.0105 19.2515 5.12215 19.3018 5.24505C19.3521 5.36794 19.3774 5.49962 19.3763 5.6324C19.3751 5.76518 19.3475 5.8964 19.2951 6.0184C19.2427 6.14041 19.1665 6.25075 19.071 6.343L18.364 7.05C18.1765 7.23747 17.9222 7.34279 17.657 7.34279C17.3918 7.34279 17.1375 7.23747 16.95 7.05ZM5.636 7.05L4.929 6.343C4.74684 6.1544 4.64605 5.9018 4.64833 5.6396C4.65061 5.3774 4.75577 5.12659 4.94118 4.94118C5.12659 4.75577 5.3774 4.65061 5.6396 4.64833C5.9018 4.64605 6.1544 4.74684 6.343 4.929L7.05 5.636C7.23216 5.8246 7.33295 6.0772 7.33067 6.3394C7.32839 6.6016 7.22323 6.85241 7.03782 7.03782C6.85241 7.22323 6.6016 7.32839 6.3394 7.33067C6.0772 7.33295 5.8246 7.23216 5.636 7.05ZM11.383 22C10.8954 22.0001 10.4246 21.8221 10.0591 21.4995C9.69356 21.1768 9.45846 20.7318 9.398 20.248L9.018 17.208C7.87033 16.5507 6.972 15.5326 6.4627 14.312C5.9534 13.0914 5.86167 11.7367 6.20177 10.4586C6.54187 9.18051 7.29474 8.05058 8.34331 7.24454C9.39189 6.43849 10.6774 6.0015 12 6.0015C13.3226 6.0015 14.6081 6.43849 15.6567 7.24454C16.7053 8.05058 17.4581 9.18051 17.7982 10.4586C18.1383 11.7367 18.0466 13.0914 17.5373 14.312C17.028 15.5326 16.1297 16.5507 14.982 17.208L14.602 20.248C14.5415 20.7318 14.3064 21.1768 13.9409 21.4995C13.5754 21.8221 13.1046 22.0001 12.617 22H11.383ZM20 13C19.7348 13 19.4804 12.8946 19.2929 12.7071C19.1054 12.5196 19 12.2652 19 12C19 11.7348 19.1054 11.4804 19.2929 11.2929C19.4804 11.1054 19.7348 11 20 11H21C21.2652 11 21.5196 11.1054 21.7071 11.2929C21.8946 11.4804 22 11.7348 22 12C22 12.2652 21.8946 12.5196 21.7071 12.7071C21.5196 12.8946 21.2652 13 21 13H20ZM3 13C2.73478 13 2.48043 12.8946 2.29289 12.7071C2.10536 12.5196 2 12.2652 2 12C2 11.7348 2.10536 11.4804 2.29289 11.2929C2.48043 11.1054 2.73478 11 3 11H4C4.26522 11 4.51957 11.1054 4.70711 11.2929C4.89464 11.4804 5 11.7348 5 12C5 12.2652 4.89464 12.5196 4.70711 12.7071C4.51957 12.8946 4.26522 13 4 13H3ZM4.929 19.07C4.74153 18.8825 4.63621 18.6282 4.63621 18.363C4.63621 18.0978 4.74153 17.8435 4.929 17.656L5.636 16.949C5.72825 16.8535 5.83859 16.7773 5.9606 16.7249C6.0826 16.6725 6.21382 16.6449 6.3466 16.6437C6.47938 16.6426 6.61106 16.6679 6.73395 16.7182C6.85685 16.7685 6.9685 16.8427 7.0624 16.9366C7.15629 17.0305 7.23054 17.1421 7.28082 17.265C7.3311 17.3879 7.35641 17.5196 7.35525 17.6524C7.3541 17.7852 7.32651 17.9164 7.2741 18.0384C7.22169 18.1604 7.14551 18.2708 7.05 18.363L6.343 19.07C6.15547 19.2575 5.90116 19.3628 5.636 19.3628C5.37084 19.3628 5.11653 19.2575 4.929 19.07ZM17.657 19.07L16.95 18.363C16.7723 18.1735 16.6754 17.9224 16.6796 17.6627C16.6838 17.403 16.7889 17.1552 16.9726 16.9716C17.1563 16.788 17.4042 16.6831 17.6639 16.6791C17.9236 16.6751 18.1747 16.7722 18.364 16.95L19.071 17.657C19.2487 17.8465 19.3456 18.0976 19.3414 18.3573C19.3372 18.617 19.2321 18.8648 19.0484 19.0484C18.8647 19.232 18.6168 19.3369 18.3571 19.3409C18.0974 19.3449 17.8463 19.2478 17.657 19.07ZM11.383 20H12.617L12.867 18H11.133L11.383 20Z" fill="#065774"/>
</g>
<defs>
<clipPath id="clip0_15_1194">
<rect width="24" height="24" fill="white" transform="matrix(-1 0 0 -1 24 24)"/>
</clipPath>
</defs>
</svg>
