<svg width="18" height="18" viewBox="0 0 18 18" fill="none" xmlns="http://www.w3.org/2000/svg">
<path d="M16.0714 6H11.5714V1.8C11.5714 1.32261 11.3682 0.864773 11.0066 0.527208C10.6449 0.189642 10.1543 0 9.64286 0H1.92857C1.41708 0 0.926543 0.189642 0.564866 0.527208C0.203188 0.864773 0 1.32261 0 1.8V17.4C0 17.5591 0.0677294 17.7117 0.188288 17.8243C0.308848 17.9368 0.472361 18 0.642857 18H4.82143C4.90668 18 4.98843 17.9684 5.04871 17.9121C5.10899 17.8559 5.14286 17.7796 5.14286 17.7V15.0169C5.14286 14.694 5.40884 14.4169 5.75478 14.4008C5.8417 14.3968 5.92856 14.4094 6.01011 14.4378C6.09166 14.4661 6.16619 14.5097 6.22919 14.5657C6.29219 14.6217 6.34234 14.6891 6.37662 14.7638C6.41089 14.8384 6.42856 14.9188 6.42857 15V17.7C6.42857 17.7796 6.46244 17.8559 6.52272 17.9121C6.58299 17.9684 6.66475 18 6.75 18H17.3571C17.5276 18 17.6912 17.9368 17.8117 17.8243C17.9323 17.7117 18 17.5591 18 17.4V7.8C18 7.32261 17.7968 6.86477 17.4351 6.52721C17.0735 6.18964 16.5829 6 16.0714 6ZM2.655 15.5951C2.52186 15.6114 2.38661 15.5883 2.26823 15.5292C2.14985 15.47 2.05429 15.3778 1.99495 15.2653C1.93562 15.1529 1.91548 15.026 1.93739 14.9023C1.95929 14.7787 2.02212 14.6645 2.11707 14.5759C2.21201 14.4873 2.3343 14.4287 2.46678 14.4082C2.59926 14.3878 2.73526 14.4066 2.85572 14.462C2.97617 14.5173 3.07502 14.6065 3.13839 14.717C3.20176 14.8275 3.22648 14.9537 3.20906 15.078C3.19069 15.2091 3.1264 15.3309 3.0262 15.4245C2.926 15.518 2.79551 15.578 2.655 15.5951ZM2.655 12.5951C2.52186 12.6114 2.38661 12.5883 2.26823 12.5292C2.14985 12.47 2.05429 12.3778 1.99495 12.2653C1.93562 12.1529 1.91548 12.026 1.93739 11.9023C1.95929 11.7787 2.02212 11.6645 2.11707 11.5759C2.21201 11.4873 2.3343 11.4287 2.46678 11.4082C2.59926 11.3878 2.73526 11.4066 2.85572 11.462C2.97617 11.5173 3.07502 11.6065 3.13839 11.717C3.20176 11.8275 3.22648 11.9537 3.20906 12.078C3.19069 12.2091 3.1264 12.3309 3.0262 12.4245C2.926 12.518 2.79551 12.578 2.655 12.5951ZM2.655 9.59513C2.52186 9.61138 2.38661 9.58831 2.26823 9.52916C2.14985 9.47002 2.05429 9.37776 1.99495 9.26534C1.93562 9.15291 1.91548 9.02597 1.93739 8.90233C1.95929 8.77868 2.02212 8.66454 2.11707 8.57593C2.21201 8.48731 2.3343 8.42867 2.46678 8.40823C2.59926 8.38779 2.73526 8.40657 2.85572 8.46196C2.97617 8.51734 3.07502 8.60653 3.13839 8.71702C3.20176 8.8275 3.22648 8.95374 3.20906 9.078C3.19069 9.20914 3.1264 9.33094 3.0262 9.42446C2.926 9.51797 2.79551 9.57797 2.655 9.59513ZM2.655 6.59513C2.52186 6.61138 2.38661 6.58831 2.26823 6.52916C2.14985 6.47002 2.05429 6.37776 1.99495 6.26534C1.93562 6.15291 1.91548 6.02597 1.93739 5.90233C1.95929 5.77868 2.02212 5.66454 2.11707 5.57593C2.21201 5.48731 2.3343 5.42867 2.46678 5.40823C2.59926 5.38779 2.73526 5.40657 2.85572 5.46196C2.97617 5.51734 3.07502 5.60653 3.13839 5.71702C3.20176 5.8275 3.22648 5.95374 3.20906 6.078C3.19069 6.20914 3.1264 6.33094 3.0262 6.42446C2.926 6.51797 2.79551 6.57797 2.655 6.59513ZM2.655 3.59513C2.52186 3.61138 2.38661 3.58831 2.26823 3.52916C2.14985 3.47002 2.05429 3.37776 1.99495 3.26534C1.93562 3.15291 1.91548 3.02597 1.93739 2.90233C1.95929 2.77868 2.02212 2.66454 2.11707 2.57593C2.21201 2.48731 2.3343 2.42867 2.46678 2.40823C2.59926 2.38779 2.73526 2.40657 2.85572 2.46196C2.97617 2.51734 3.07502 2.60653 3.13839 2.71702C3.20176 2.8275 3.22648 2.95374 3.20906 3.078C3.19069 3.20914 3.1264 3.33094 3.0262 3.42446C2.926 3.51797 2.79551 3.57797 2.655 3.59513ZM5.86929 12.5951C5.73615 12.6114 5.60089 12.5883 5.48252 12.5292C5.36414 12.47 5.26857 12.3778 5.20924 12.2653C5.1499 12.1529 5.12977 12.026 5.15167 11.9023C5.17357 11.7787 5.2364 11.6645 5.33135 11.5759C5.4263 11.4873 5.54859 11.4287 5.68107 11.4082C5.81354 11.3878 5.94955 11.4066 6.07 11.462C6.19045 11.5173 6.2893 11.6065 6.35267 11.717C6.41605 11.8275 6.44076 11.9537 6.42335 12.078C6.40497 12.2091 6.34069 12.3309 6.24049 12.4245C6.14029 12.518 6.00979 12.578 5.86929 12.5951ZM5.86929 9.59513C5.73615 9.61138 5.60089 9.58831 5.48252 9.52916C5.36414 9.47002 5.26857 9.37776 5.20924 9.26534C5.1499 9.15291 5.12977 9.02597 5.15167 8.90233C5.17357 8.77868 5.2364 8.66454 5.33135 8.57593C5.4263 8.48731 5.54859 8.42867 5.68107 8.40823C5.81354 8.38779 5.94955 8.40657 6.07 8.46196C6.19045 8.51734 6.2893 8.60653 6.35267 8.71702C6.41605 8.8275 6.44076 8.95374 6.42335 9.078C6.40497 9.20914 6.34069 9.33094 6.24049 9.42446C6.14029 9.51797 6.00979 9.57797 5.86929 9.59513ZM5.86929 6.59513C5.73615 6.61138 5.60089 6.58831 5.48252 6.52916C5.36414 6.47002 5.26857 6.37776 5.20924 6.26534C5.1499 6.15291 5.12977 6.02597 5.15167 5.90233C5.17357 5.77868 5.2364 5.66454 5.33135 5.57593C5.4263 5.48731 5.54859 5.42867 5.68107 5.40823C5.81354 5.38779 5.94955 5.40657 6.07 5.46196C6.19045 5.51734 6.2893 5.60653 6.35267 5.71702C6.41605 5.8275 6.44076 5.95374 6.42335 6.078C6.40497 6.20914 6.34069 6.33094 6.24049 6.42446C6.14029 6.51797 6.00979 6.57797 5.86929 6.59513ZM5.86929 3.59513C5.73615 3.61138 5.60089 3.58831 5.48252 3.52916C5.36414 3.47002 5.26857 3.37776 5.20924 3.26534C5.1499 3.15291 5.12977 3.02597 5.15167 2.90233C5.17357 2.77868 5.2364 2.66454 5.33135 2.57593C5.4263 2.48731 5.54859 2.42867 5.68107 2.40823C5.81354 2.38779 5.94955 2.40657 6.07 2.46196C6.19045 2.51734 6.2893 2.60653 6.35267 2.71702C6.41605 2.8275 6.44076 2.95374 6.42335 3.078C6.40497 3.20914 6.34069 3.33094 6.24049 3.42446C6.14029 3.51797 6.00979 3.57797 5.86929 3.59513ZM9.08357 15.5951C8.95043 15.6114 8.81518 15.5883 8.6968 15.5292C8.57842 15.47 8.48286 15.3778 8.42352 15.2653C8.36419 15.1529 8.34406 15.026 8.36596 14.9023C8.38786 14.7787 8.45069 14.6645 8.54564 14.5759C8.64058 14.4873 8.76288 14.4287 8.89535 14.4082C9.02783 14.3878 9.16384 14.4066 9.28429 14.462C9.40474 14.5173 9.50359 14.6065 9.56696 14.717C9.63033 14.8275 9.65505 14.9537 9.63763 15.078C9.61926 15.2091 9.55497 15.3309 9.45477 15.4245C9.35458 15.518 9.22408 15.578 9.08357 15.5951ZM9.08357 12.5951C8.95043 12.6114 8.81518 12.5883 8.6968 12.5292C8.57842 12.47 8.48286 12.3778 8.42352 12.2653C8.36419 12.1529 8.34406 12.026 8.36596 11.9023C8.38786 11.7787 8.45069 11.6645 8.54564 11.5759C8.64058 11.4873 8.76288 11.4287 8.89535 11.4082C9.02783 11.3878 9.16384 11.4066 9.28429 11.462C9.40474 11.5173 9.50359 11.6065 9.56696 11.717C9.63033 11.8275 9.65505 11.9537 9.63763 12.078C9.61926 12.2091 9.55497 12.3309 9.45477 12.4245C9.35458 12.518 9.22408 12.578 9.08357 12.5951ZM9.08357 9.59513C8.95043 9.61138 8.81518 9.58831 8.6968 9.52916C8.57842 9.47002 8.48286 9.37776 8.42352 9.26534C8.36419 9.15291 8.34406 9.02597 8.36596 8.90233C8.38786 8.77868 8.45069 8.66454 8.54564 8.57593C8.64058 8.48731 8.76288 8.42867 8.89535 8.40823C9.02783 8.38779 9.16384 8.40657 9.28429 8.46196C9.40474 8.51734 9.50359 8.60653 9.56696 8.71702C9.63033 8.8275 9.65505 8.95374 9.63763 9.078C9.61926 9.20914 9.55497 9.33094 9.45477 9.42446C9.35458 9.51797 9.22408 9.57797 9.08357 9.59513ZM9.08357 6.59513C8.95043 6.61138 8.81518 6.58831 8.6968 6.52916C8.57842 6.47002 8.48286 6.37776 8.42352 6.26534C8.36419 6.15291 8.34406 6.02597 8.36596 5.90233C8.38786 5.77868 8.45069 5.66454 8.54564 5.57593C8.64058 5.48731 8.76288 5.42867 8.89535 5.40823C9.02783 5.38779 9.16384 5.40657 9.28429 5.46196C9.40474 5.51734 9.50359 5.60653 9.56696 5.71702C9.63033 5.8275 9.65505 5.95374 9.63763 6.078C9.61926 6.20914 9.55497 6.33094 9.45477 6.42446C9.35458 6.51797 9.22408 6.57797 9.08357 6.59513ZM9.08357 3.59513C8.95043 3.61138 8.81518 3.58831 8.6968 3.52916C8.57842 3.47002 8.48286 3.37776 8.42352 3.26534C8.36419 3.15291 8.34406 3.02597 8.36596 2.90233C8.38786 2.77868 8.45069 2.66454 8.54564 2.57593C8.64058 2.48731 8.76288 2.42867 8.89535 2.40823C9.02783 2.38779 9.16384 2.40657 9.28429 2.46196C9.40474 2.51734 9.50359 2.60653 9.56696 2.71702C9.63033 2.8275 9.65505 2.95374 9.63763 3.078C9.61926 3.20914 9.55497 3.33094 9.45477 3.42446C9.35458 3.51797 9.22408 3.57797 9.08357 3.59513ZM16.5536 16.8H11.5714V7.2H16.0714C16.2419 7.2 16.4054 7.26321 16.526 7.37574C16.6466 7.48826 16.7143 7.64087 16.7143 7.8V16.65C16.7143 16.6898 16.6974 16.7279 16.6672 16.7561C16.6371 16.7842 16.5962 16.8 16.5536 16.8Z" fill="white"/>
</svg>
