<svg width="23" height="19" viewBox="0 0 23 19" fill="none" xmlns="http://www.w3.org/2000/svg">
<path d="M8.84502 1.23498C7.12911 0.415734 4.73074 0.0144216 1.51977 0.000173784C1.21694 -0.00394045 0.920052 0.0843632 0.668698 0.253309C0.462385 0.392761 0.2935 0.580774 0.176898 0.800811C0.0602957 1.02085 -0.000450401 1.26617 2.51419e-06 1.51519V15.1028C2.51419e-06 16.0213 0.6535 16.7142 1.51977 16.7142C4.89506 16.7142 8.28081 17.0296 10.3087 18.9464C10.3365 18.9727 10.3714 18.9903 10.409 18.997C10.4467 19.0037 10.4855 18.9992 10.5206 18.984C10.5557 18.9688 10.5856 18.9437 10.6065 18.9117C10.6275 18.8796 10.6385 18.8422 10.6383 18.8039V2.79369C10.6384 2.68567 10.6153 2.57889 10.5706 2.48057C10.5258 2.38225 10.4605 2.29468 10.379 2.22378C9.91451 1.82666 9.39852 1.49406 8.84502 1.23498ZM22.1277 0.251884C21.8763 0.0833589 21.5794 -0.00445178 21.2767 0.000173784C18.0657 0.0144216 15.6673 0.413834 13.9514 1.23498C13.398 1.49359 12.8818 1.82554 12.4169 2.22188C12.3356 2.2929 12.2705 2.38051 12.2258 2.47881C12.1812 2.57711 12.1581 2.68382 12.1581 2.79179V18.803C12.1581 18.8397 12.1689 18.8757 12.1892 18.9063C12.2096 18.9369 12.2385 18.9609 12.2724 18.9751C12.3063 18.9894 12.3436 18.9933 12.3797 18.9864C12.4158 18.9795 12.4491 18.9621 12.4754 18.9364C13.6945 17.7254 15.834 16.7128 21.2786 16.7133C21.6816 16.7133 22.0682 16.5532 22.3532 16.2682C22.6382 15.9831 22.7983 15.5966 22.7983 15.1935V1.51566C22.7989 1.26615 22.738 1.02034 22.6211 0.799928C22.5041 0.579521 22.3347 0.3913 22.1277 0.251884Z" fill="#0B1D5F"/>
</svg>
