<svg width="197" height="19" viewBox="0 0 197 19" fill="none" xmlns="http://www.w3.org/2000/svg">
<path d="M8.75213 1.22201C7.05425 0.411368 4.68106 0.0142701 1.50381 0.000171959C1.20416 -0.00389907 0.91039 0.0834773 0.661676 0.250649C0.457529 0.388637 0.290417 0.574675 0.17504 0.792401C0.0596625 1.01013 -0.000445671 1.25287 2.48779e-06 1.49928V14.9442C2.48779e-06 15.8531 0.646638 16.5387 1.50381 16.5387C4.84366 16.5387 8.19385 16.8508 10.2005 18.7474C10.2279 18.7735 10.2624 18.7909 10.2997 18.7975C10.337 18.8041 10.3754 18.7997 10.4101 18.7847C10.4449 18.7696 10.4744 18.7447 10.4951 18.7131C10.5159 18.6814 10.5268 18.6443 10.5266 18.6064V2.76435C10.5267 2.65746 10.5038 2.55181 10.4596 2.45452C10.4153 2.35723 10.3507 2.27058 10.27 2.20042C9.81039 1.80748 9.29982 1.47837 8.75213 1.22201ZM21.8954 0.249239C21.6465 0.0824835 21.3528 -0.00440503 21.0532 0.000171959C17.876 0.0142701 15.5028 0.409488 13.8049 1.22201C13.2573 1.4779 12.7465 1.80637 12.2865 2.19854C12.2061 2.26882 12.1416 2.35551 12.0974 2.45278C12.0533 2.55004 12.0304 2.65564 12.0304 2.76247V18.6055C12.0304 18.6419 12.0411 18.6774 12.0612 18.7078C12.0814 18.7381 12.11 18.7618 12.1435 18.7759C12.177 18.79 12.214 18.7938 12.2497 18.787C12.2854 18.7802 12.3184 18.763 12.3443 18.7376C13.5507 17.5392 15.6677 16.5373 21.0551 16.5378C21.454 16.5378 21.8365 16.3793 22.1185 16.0973C22.4005 15.8153 22.5589 15.4328 22.5589 15.034V1.49975C22.5595 1.25285 22.4992 1.00962 22.3835 0.791528C22.2678 0.573435 22.1001 0.387191 21.8954 0.249239Z" fill="white"/>
<path d="M110.782 18.0456H92.7363V16.0406H110.782V18.0456ZM97.749 7.01775H93.7389V14.0355H97.749V7.01775ZM103.764 0H99.7541V14.0355H103.764V0ZM109.779 3.00761H105.769V14.0355H109.779V3.00761Z" fill="white"/>
<path d="M188.98 0C190.043 0 191.063 0.422496 191.815 1.17454C192.567 1.92659 192.99 2.94659 192.99 4.01014C192.99 5.0737 192.567 6.09369 191.815 6.84574C191.063 7.59779 190.043 8.02028 188.98 8.02028C187.916 8.02028 186.896 7.59779 186.144 6.84574C185.392 6.09369 184.97 5.0737 184.97 4.01014C184.97 2.94659 185.392 1.92659 186.144 1.17454C186.896 0.422496 187.916 0 188.98 0ZM188.98 10.0254C193.411 10.0254 197 11.8199 197 14.0355V16.0406H180.959V14.0355C180.959 11.8199 184.549 10.0254 188.98 10.0254Z" fill="white"/>
</svg>
