<svg width="20" height="20" viewBox="0 0 20 20" fill="none" xmlns="http://www.w3.org/2000/svg">
<path d="M19 16H12.82C12.6707 15.5806 12.4299 15.1997 12.1151 14.8849C11.8003 14.5701 11.4194 14.3293 11 14.18V11H18C18.2652 11 18.5196 10.8946 18.7071 10.7071C18.8946 10.5196 19 10.2652 19 10C19 9.73478 18.8946 9.48043 18.7071 9.29289C18.5196 9.10536 18.2652 9 18 9H17V3C17 2.20435 16.6839 1.44129 16.1213 0.87868C15.5587 0.316071 14.7956 0 14 0H6C5.20435 0 4.44129 0.316071 3.87868 0.87868C3.31607 1.44129 3 2.20435 3 3V9H2C1.73478 9 1.48043 9.10536 1.29289 9.29289C1.10536 9.48043 1 9.73478 1 10C1 10.2652 1.10536 10.5196 1.29289 10.7071C1.48043 10.8946 1.73478 11 2 11H9V14.18C8.5806 14.3293 8.19969 14.5701 7.8849 14.8849C7.57011 15.1997 7.32932 15.5806 7.18 16H1C0.734784 16 0.48043 16.1054 0.292893 16.2929C0.105357 16.4804 0 16.7348 0 17C0 17.2652 0.105357 17.5196 0.292893 17.7071C0.48043 17.8946 0.734784 18 1 18H7.18C7.3902 18.5792 7.77363 19.0795 8.27816 19.4332C8.7827 19.7868 9.38388 19.9765 10 19.9765C10.6161 19.9765 11.2173 19.7868 11.7218 19.4332C12.2264 19.0795 12.6098 18.5792 12.82 18H19C19.2652 18 19.5196 17.8946 19.7071 17.7071C19.8946 17.5196 20 17.2652 20 17C20 16.7348 19.8946 16.4804 19.7071 16.2929C19.5196 16.1054 19.2652 16 19 16ZM5 9V3C5 2.73478 5.10536 2.48043 5.29289 2.29289C5.48043 2.10536 5.73478 2 6 2H14C14.2652 2 14.5196 2.10536 14.7071 2.29289C14.8946 2.48043 15 2.73478 15 3V9H5ZM10 18C9.80222 18 9.60888 17.9414 9.44443 17.8315C9.27998 17.7216 9.15181 17.5654 9.07612 17.3827C9.00043 17.2 8.98063 16.9989 9.01921 16.8049C9.0578 16.6109 9.15304 16.4327 9.29289 16.2929C9.43275 16.153 9.61093 16.0578 9.80491 16.0192C9.99889 15.9806 10.2 16.0004 10.3827 16.0761C10.5654 16.1518 10.7216 16.28 10.8315 16.4444C10.9414 16.6089 11 16.8022 11 17C11 17.2652 10.8946 17.5196 10.7071 17.7071C10.5196 17.8946 10.2652 18 10 18Z" fill="white"/>
</svg>
