<svg width="18" height="22" viewBox="0 0 18 22" fill="none" xmlns="http://www.w3.org/2000/svg">
<path d="M8.95069 1.75023C5.58252 1.75023 2.84523 4.48751 2.84523 7.85569V10.7965C2.84523 11.4172 2.58066 12.3636 2.26522 12.8927L1.095 14.8363C0.372524 16.037 0.871136 17.37 2.19399 17.8178C6.57974 19.2831 11.3115 19.2831 15.6972 17.8178C16.9285 17.4107 17.4678 15.9556 16.7962 14.8363L15.626 12.8927C15.3207 12.3636 15.0562 11.4172 15.0562 10.7965V7.85569C15.0562 4.49769 12.3087 1.75023 8.95069 1.75023Z" stroke="white" stroke-width="1.5" stroke-miterlimit="10" stroke-linecap="round"/>
<path d="M10.8333 2.04533C10.5178 1.95375 10.1922 1.88252 9.85642 1.84181C8.87954 1.7197 7.94337 1.79093 7.06826 2.04533C7.36335 1.29232 8.09601 0.763182 8.95077 0.763182C9.80554 0.763182 10.5382 1.29232 10.8333 2.04533Z" stroke="white" stroke-width="1.5" stroke-miterlimit="10" stroke-linecap="round" stroke-linejoin="round"/>
<path d="M12.0035 18.1841C12.0035 19.8631 10.6297 21.2368 8.95075 21.2368C8.11634 21.2368 7.34298 20.8908 6.79349 20.3414C6.24399 19.7919 5.89802 19.0185 5.89802 18.1841" stroke="white" stroke-width="1.5" stroke-miterlimit="10"/>
</svg>
