<svg width="31" height="31" viewBox="0 0 31 31" fill="none" xmlns="http://www.w3.org/2000/svg">
<circle cx="15.5" cy="15.5" r="15.5" fill="#065774"/>
<path d="M21.5 15C21.1022 15 20.7206 14.842 20.4393 14.5607C20.158 14.2794 20 13.8978 20 13.5C20 13.1022 20.158 12.7206 20.4393 12.4393C20.7206 12.158 21.1022 12 21.5 12C21.8978 12 22.2794 12.158 22.5607 12.4393C22.842 12.7206 23 13.1022 23 13.5C23 13.8978 22.842 14.2794 22.5607 14.5607C22.2794 14.842 21.8978 15 21.5 15ZM18.5 11C18.1022 11 17.7206 10.842 17.4393 10.5607C17.158 10.2794 17 9.89782 17 9.5C17 9.10218 17.158 8.72064 17.4393 8.43934C17.7206 8.15804 18.1022 8 18.5 8C18.8978 8 19.2794 8.15804 19.5607 8.43934C19.842 8.72064 20 9.10218 20 9.5C20 9.89782 19.842 10.2794 19.5607 10.5607C19.2794 10.842 18.8978 11 18.5 11ZM13.5 11C13.1022 11 12.7206 10.842 12.4393 10.5607C12.158 10.2794 12 9.89782 12 9.5C12 9.10218 12.158 8.72064 12.4393 8.43934C12.7206 8.15804 13.1022 8 13.5 8C13.8978 8 14.2794 8.15804 14.5607 8.43934C14.842 8.72064 15 9.10218 15 9.5C15 9.89782 14.842 10.2794 14.5607 10.5607C14.2794 10.842 13.8978 11 13.5 11ZM10.5 15C10.1022 15 9.72064 14.842 9.43934 14.5607C9.15804 14.2794 9 13.8978 9 13.5C9 13.1022 9.15804 12.7206 9.43934 12.4393C9.72064 12.158 10.1022 12 10.5 12C10.8978 12 11.2794 12.158 11.5607 12.4393C11.842 12.7206 12 13.1022 12 13.5C12 13.8978 11.842 14.2794 11.5607 14.5607C11.2794 14.842 10.8978 15 10.5 15ZM16 6C13.6131 6 11.3239 6.94821 9.63604 8.63604C7.94821 10.3239 7 12.6131 7 15C7 17.3869 7.94821 19.6761 9.63604 21.364C11.3239 23.0518 13.6131 24 16 24C16.3978 24 16.7794 23.842 17.0607 23.5607C17.342 23.2794 17.5 22.8978 17.5 22.5C17.5 22.11 17.35 21.76 17.11 21.5C16.88 21.23 16.73 20.88 16.73 20.5C16.73 20.1022 16.888 19.7206 17.1693 19.4393C17.4506 19.158 17.8322 19 18.23 19H20C21.3261 19 22.5979 18.4732 23.5355 17.5355C24.4732 16.5979 25 15.3261 25 14C25 9.58 20.97 6 16 6Z" fill="white"/>
</svg>
