<svg width="19" height="18" viewBox="0 0 19 18" fill="none" xmlns="http://www.w3.org/2000/svg">
<path d="M2.02785 18C1.17785 18 0.573845 17.621 0.215845 16.863C-0.142155 16.105 -0.0548216 15.4007 0.477845 14.75L6.02784 8V2H5.02784C4.74451 2 4.50718 1.904 4.31585 1.712C4.12451 1.52 4.02851 1.28267 4.02784 1C4.02784 0.716667 4.12385 0.479333 4.31585 0.288C4.50784 0.0966668 4.74518 0.000666667 5.02784 0H13.0278C13.3112 0 13.5488 0.0960001 13.7408 0.288C13.9328 0.48 14.0285 0.717333 14.0278 1C14.0278 1.28333 13.9318 1.521 13.7398 1.713C13.5478 1.905 13.3105 2.00067 13.0278 2H12.0278V8L17.5778 14.75C18.1112 15.4 18.1988 16.1043 17.8408 16.863C17.4828 17.6217 16.8785 18.0007 16.0278 18H2.02785Z" fill="white"/>
</svg>
